<svg width="16" height="17" viewBox="0 0 16 17" fill="none" xmlns="http://www.w3.org/2000/svg">
<path d="M14 8.95117C14 12.2649 11.3137 14.9512 8 14.9512C7.2019 14.9512 6.4402 14.7953 5.74366 14.5125C5.61035 14.4583 5.54369 14.4313 5.48981 14.4192C5.43711 14.4074 5.3981 14.403 5.34409 14.403C5.28887 14.403 5.22872 14.4131 5.10843 14.4331L2.73651 14.8284C2.48812 14.8698 2.36393 14.8905 2.27412 14.852C2.19552 14.8183 2.13289 14.7557 2.09917 14.677C2.06065 14.5872 2.08135 14.4631 2.12275 14.2147L2.51807 11.8427C2.53812 11.7224 2.54814 11.6623 2.54814 11.6071C2.54813 11.5531 2.54381 11.5141 2.532 11.4614C2.51992 11.4075 2.49285 11.3408 2.43871 11.2075C2.15582 10.511 2 9.74927 2 8.95117C2 5.63746 4.68629 2.95117 8 2.95117C11.3137 2.95117 14 5.63746 14 8.95117Z" stroke="#939494" stroke-linecap="round" stroke-linejoin="round"/>
</svg>
